<svg width="42" height="45" viewBox="0 0 42 45" fill="none" xmlns="http://www.w3.org/2000/svg">
<g filter="url(#filter0_d_1203_148)">
<path d="M21 3.33331C11.8 3.33331 4.33333 10.8 4.33333 20C4.33333 29.2 11.8 36.6666 21 36.6666C30.2 36.6666 37.6667 29.2 37.6667 20C37.6667 10.8 30.2 3.33331 21 3.33331ZM20.35 24.7333C20.35 26.55 18.9333 27.9666 17.1167 27.9666H14.65C12.8667 27.9666 11.4167 26.5166 11.4167 24.7333V20.2833C11.4167 15.15 12.5333 14 15.5167 12.2333C15.7167 12.1166 15.9333 12.0666 16.15 12.0666C16.5833 12.0666 17 12.2833 17.2333 12.6833C17.5833 13.2833 17.3833 14.05 16.8 14.4C14.7833 15.5666 14.0833 16 13.95 19.0166H17.1333C18.95 19.0166 20.3667 20.4333 20.3667 22.25V24.7333H20.35ZM30.5833 24.7333C30.5833 26.55 29.1667 27.9666 27.35 27.9666H24.8667C23.0833 27.9666 21.6333 26.5166 21.6333 24.7333V20.2833C21.6333 15.15 22.75 14 25.7333 12.2333C25.9333 12.1166 26.15 12.0666 26.3667 12.0666C26.8 12.0666 27.2167 12.2833 27.45 12.6833C27.8 13.2833 27.6 14.05 27.0167 14.4C25 15.6 24.3 16.0333 24.1667 19.05H27.35C29.1667 19.05 30.5833 20.4666 30.5833 22.2833V24.7333Z" fill="#E61C5D"/>
</g>
<defs>
<filter id="filter0_d_1203_148" x="-3" y="0" width="48" height="48" filterUnits="userSpaceOnUse" color-interpolation-filters="sRGB">
<feFlood flood-opacity="0" result="BackgroundImageFix"/>
<feColorMatrix in="SourceAlpha" type="matrix" values="0 0 0 0 0 0 0 0 0 0 0 0 0 0 0 0 0 0 127 0" result="hardAlpha"/>
<feOffset dy="4"/>
<feGaussianBlur stdDeviation="2"/>
<feComposite in2="hardAlpha" operator="out"/>
<feColorMatrix type="matrix" values="0 0 0 0 0 0 0 0 0 0 0 0 0 0 0 0 0 0 0.25 0"/>
<feBlend mode="normal" in2="BackgroundImageFix" result="effect1_dropShadow_1203_148"/>
<feBlend mode="normal" in="SourceGraphic" in2="effect1_dropShadow_1203_148" result="shape"/>
</filter>
</defs>
</svg>
